<?xml version="1.0" standalone="no"?>
<svg version="1.0" xmlns="http://www.w3.org/2000/svg"
     width="800" height="500" viewBox="0 0 300.000000 225.000000"
     preserveAspectRatio="xMidYMid meet">

    <g transform="translate(0.000000,225.000000) scale(0.100000,-0.100000)"
       fill="#000000" stroke="none">
        <path d="M30 1125 l0 -1105 1470 0 1470 0 0 1105 0 1105 -1470 0 -1470 0 0
-1105z m2920 0 l0 -1085 -1450 0 -1450 0 0 1085 0 1085 1450 0 1450 0 0 -1085z"/>
        <path d="M920 1992 c0 -4 -19 -6 -42 -6 -42 1 -141 -28 -208 -62 -88 -44 -181
-150 -166 -190 8 -22 65 -52 110 -59 23 -3 50 -10 61 -14 11 -5 39 -14 62 -20
24 -7 55 -22 70 -35 l28 -24 -30 -42 c-36 -49 -42 -52 -202 -122 -87 -37 -123
-58 -123 -70 0 -46 132 -13 276 71 58 33 109 61 113 61 4 0 30 12 59 26 46 23
88 61 78 72 -2 2 -31 -10 -65 -27 -70 -36 -80 -38 -57 -12 26 29 31 83 9 103
-10 9 -25 18 -33 20 -8 2 -17 6 -20 10 -5 6 -25 11 -160 33 -109 18 -130 25
-130 39 0 17 69 79 114 102 21 10 40 24 43 31 3 6 11 9 19 6 8 -3 20 -1 27 5
13 10 94 30 142 34 90 8 180 -36 137 -68 -14 -10 -14 -14 -3 -28 10 -12 18
-13 33 -5 17 9 20 18 16 54 -4 36 -38 99 -50 95 -2 -1 -10 1 -18 4 -42 14 -90
24 -90 18z m-285 -602 c-22 -10 -53 -21 -70 -25 -27 -6 -28 -5 -10 6 26 17 86
38 105 38 8 -1 -3 -9 -25 -19z"/>
        <path d="M2243 1814 c-8 -22 9 -49 33 -49 30 0 27 59 -4 63 -14 2 -25 -3 -29
-14z"/>
        <path d="M1093 1635 c-47 -29 -110 -109 -119 -152 -8 -38 25 -79 68 -85 39 -6
79 11 168 71 66 44 82 61 87 94 3 15 0 16 -17 7 -11 -6 -20 -14 -20 -18 0 -4
-9 -12 -19 -17 -11 -6 -50 -27 -87 -47 -38 -21 -83 -41 -101 -44 -30 -6 -33
-4 -33 18 0 33 52 103 91 124 20 10 45 14 65 11 40 -7 64 15 47 41 -17 28 -82
26 -130 -3z"/>
        <path d="M1413 1647 c-42 -15 -73 -49 -106 -116 l-27 -53 22 -31 c30 -43 36
-46 78 -42 55 5 117 38 195 105 39 33 73 60 78 60 15 0 6 -17 -28 -57 -36 -43
-45 -82 -22 -101 10 -9 21 -4 45 18 18 16 32 26 32 23 0 -3 12 7 28 22 26 27
125 95 137 95 4 0 6 -17 5 -37 -4 -73 0 -93 20 -113 30 -30 50 -25 105 26 70
64 165 134 181 134 10 0 9 -10 -6 -42 -24 -52 -26 -111 -5 -128 13 -10 23 -10
54 5 55 24 131 97 131 124 0 22 -1 22 -37 -6 -43 -33 -90 -63 -98 -63 -10 0
-5 35 9 62 23 43 29 87 16 103 -23 28 -33 23 -165 -75 -34 -25 -74 -58 -90
-73 -41 -37 -65 -34 -55 8 16 64 8 110 -20 125 -17 9 -32 5 -80 -21 -33 -17
-60 -36 -60 -40 0 -5 -9 -13 -20 -19 -18 -10 -19 -8 -14 19 7 33 -10 71 -31
71 -15 0 -103 -55 -120 -75 -24 -29 -149 -97 -185 -102 -35 -5 -40 -3 -40 15
0 12 9 23 20 27 11 3 20 11 20 16 0 5 6 9 13 10 20 1 132 85 135 103 2 10 -7
20 -23 26 -33 12 -51 12 -92 -3z m32 -54 c-74 -61 -104 -69 -63 -18 21 27 78
58 88 48 3 -3 -8 -16 -25 -30z m240 -89 c-22 -22 -28 -13 -15 22 10 26 13 27
21 11 7 -13 6 -22 -6 -33z"/>
        <path d="M2484 1643 c-59 -30 -105 -78 -129 -135 -12 -30 -12 -38 2 -66 20
-42 76 -59 119 -37 16 8 33 15 38 15 4 0 25 14 46 30 21 17 42 30 47 30 12 0
58 51 66 72 8 23 -8 32 -23 13 -26 -31 -184 -116 -219 -118 -34 -2 -36 0 -34
26 2 33 32 73 79 105 29 19 44 23 74 18 44 -7 62 8 50 40 -7 18 -16 22 -50 21
-23 0 -53 -7 -66 -14z"/>
        <path d="M580 1195 c-111 -24 -165 -44 -178 -65 -10 -17 -11 -25 -1 -36 10
-13 16 -11 40 12 21 20 50 32 115 45 81 18 112 18 89 1 -6 -4 -15 -18 -21 -32
-6 -14 -34 -73 -62 -133 -29 -59 -52 -113 -52 -121 0 -8 9 -24 19 -37 l20 -24
16 40 c9 22 24 58 34 80 10 22 22 51 26 63 4 13 20 51 36 83 17 34 28 68 24
78 -7 23 12 29 87 26 69 -3 105 -20 87 -41 -16 -19 -106 -69 -152 -84 -32 -10
-77 -54 -66 -64 2 -2 42 -6 89 -9 116 -8 190 -36 190 -72 0 -14 -62 -75 -77
-75 -6 0 -13 -4 -15 -8 -5 -12 -107 -59 -167 -76 -30 -9 -77 -16 -105 -16 -44
0 -48 2 -36 14 19 18 143 80 193 96 21 7 50 10 63 7 17 -3 28 1 35 15 21 39
-12 49 -77 22 -149 -60 -304 -155 -304 -185 0 -4 15 -14 33 -22 25 -11 46 -13
92 -7 65 9 221 57 245 75 8 6 28 17 44 25 17 8 47 31 68 51 50 48 52 92 7 137
-32 31 -104 62 -143 62 -12 0 6 14 43 33 74 37 111 78 95 105 -23 38 -74 52
-179 51 -55 -1 -125 -7 -155 -14z"/>
        <path d="M1469 877 c-19 -17 -48 -42 -65 -53 -22 -17 -26 -25 -17 -34 9 -10
18 -8 41 9 42 29 45 27 22 -19 -24 -46 -26 -103 -5 -120 20 -16 54 5 118 73
l49 52 -6 -36 c-8 -43 22 -89 58 -89 47 0 147 104 170 177 10 31 -10 63 -39
63 -30 0 -37 -12 -26 -42 11 -30 -7 -65 -54 -107 -48 -42 -70 -42 -61 1 3 17
13 44 21 61 15 31 10 52 -19 76 -12 10 -19 6 -41 -29 -36 -56 -126 -148 -132
-133 -2 7 11 41 30 75 27 49 33 68 26 86 -11 30 -27 27 -70 -11z"/>
        <path d="M2045 891 c-85 -40 -155 -123 -155 -184 0 -30 24 -57 49 -57 21 0 91
46 146 95 l40 36 5 -43 c5 -39 8 -43 35 -46 25 -2 42 7 94 55 40 36 61 50 58
38 -17 -57 -18 -72 -3 -84 21 -17 58 -8 121 31 81 50 136 80 141 76 2 -2 -12
-44 -30 -93 -31 -82 -38 -92 -97 -140 -56 -46 -95 -93 -152 -186 -8 -14 -19
-42 -22 -61 -6 -30 -3 -38 20 -57 36 -27 46 -27 76 7 29 31 94 128 109 163 6
13 19 39 30 57 11 17 17 32 14 32 -12 0 47 85 63 92 40 15 80 9 97 -17 22 -33
36 -32 36 4 0 46 -55 62 -124 35 -20 -8 -21 12 -2 47 17 33 56 153 56 173 0 9
-9 20 -19 26 -16 8 -37 -2 -123 -59 -160 -105 -177 -110 -132 -39 32 50 43
108 22 108 -8 0 -36 -18 -61 -40 -25 -22 -49 -40 -54 -40 -5 0 -27 -18 -48
-40 -21 -22 -43 -40 -48 -40 -14 0 0 70 18 90 8 9 15 29 15 43 0 34 -34 37
-51 5 l-12 -23 -10 28 c-11 33 -43 36 -102 8z m93 -50 c-12 -32 -180 -152
-194 -138 -19 19 55 109 110 133 35 15 89 19 84 5z m301 -358 c-74 -135 -108
-183 -129 -183 -15 0 17 87 54 145 25 38 97 115 109 115 5 0 -11 -35 -34 -77z"/>
        <path d="M1005 849 c-33 -28 -61 -55 -63 -59 -7 -18 21 -21 40 -3 20 18 21 18
15 -2 -17 -58 -18 -72 -3 -84 21 -17 58 -7 121 32 59 36 138 77 142 74 1 -2
-13 -43 -31 -92 -31 -82 -38 -92 -93 -136 -81 -64 -165 -183 -178 -252 -6 -29
-3 -37 20 -56 15 -11 33 -21 39 -21 24 0 102 104 154 207 11 23 25 50 30 60 6
10 18 35 28 57 30 60 107 78 138 31 22 -33 36 -32 36 4 0 41 -44 59 -101 42
-23 -7 -42 -11 -44 -9 -2 2 5 20 15 41 22 44 60 160 60 181 0 9 -9 20 -19 26
-16 8 -37 -2 -123 -59 -164 -108 -169 -109 -123 -23 27 51 33 92 13 92 -7 0
-40 -23 -73 -51z m114 -366 c-61 -113 -109 -183 -124 -183 -15 0 -9 28 17 85
28 63 118 175 141 175 5 0 -11 -35 -34 -77z"/>
    </g>
</svg>
