<svg version="1.0" width="400" height="300" viewBox="0 0 300 225"><path d="M3 112.5V223h294V2H3v110.5zm292 0V221H5V4h290v108.5z"/><path d="M92 25.8c0 .4-1.9.6-4.2.6-4.2-.1-14.1 2.8-20.8 6.2-8.8 4.4-18.1 15-16.6 19 .8 2.2 6.5 5.2 11 5.9 2.3.3 5 1 6.1 1.4 1.1.5 3.9 1.4 6.2 2 2.4.7 5.5 2.2 7 3.5l2.8 2.4-3 4.2c-3.6 4.9-4.2 5.2-20.2 12.2-8.7 3.7-12.3 5.8-12.3 7 0 4.6 13.2 1.3 27.6-7.1 5.8-3.3 10.9-6.1 11.3-6.1.4 0 3-1.2 5.9-2.6 4.6-2.3 8.8-6.1 7.8-7.2-.2-.2-3.1 1-6.5 2.7-7 3.6-8 3.8-5.7 1.2 2.6-2.9 3.1-8.3.9-10.3-1-.9-2.5-1.8-3.3-2-.8-.2-1.7-.6-2-1-.5-.6-2.5-1.1-16-3.3-10.9-1.8-13-2.5-13-3.9 0-1.7 6.9-7.9 11.4-10.2 2.1-1 4-2.4 4.3-3.1.3-.6 1.1-.9 1.9-.6.8.3 2 .1 2.7-.5 1.3-1 9.4-3 14.2-3.4 9-.8 18 3.6 13.7 6.8-1.4 1-1.4 1.4-.3 2.8 1 1.2 1.8 1.3 3.3.5 1.7-.9 2-1.8 1.6-5.4-.4-3.6-3.8-9.9-5-9.5-.2.1-1-.1-1.8-.4-4.2-1.4-9-2.4-9-1.8zM63.5 86c-2.2 1-5.3 2.1-7 2.5-2.7.6-2.8.5-1-.6 2.6-1.7 8.6-3.8 10.5-3.8.8.1-.3.9-2.5 1.9zM224.3 43.6c-.8 2.2.9 4.9 3.3 4.9 3 0 2.7-5.9-.4-6.3-1.4-.2-2.5.3-2.9 1.4zM109.3 61.5c-4.7 2.9-11 10.9-11.9 15.2-.8 3.8 2.5 7.9 6.8 8.5 3.9.6 7.9-1.1 16.8-7.1 6.6-4.4 8.2-6.1 8.7-9.4.3-1.5 0-1.6-1.7-.7-1.1.6-2 1.4-2 1.8 0 .4-.9 1.2-1.9 1.7-1.1.6-5 2.7-8.7 4.7-3.8 2.1-8.3 4.1-10.1 4.4-3 .6-3.3.4-3.3-1.8 0-3.3 5.2-10.3 9.1-12.4 2-1 4.5-1.4 6.5-1.1 4 .7 6.4-1.5 4.7-4.1-1.7-2.8-8.2-2.6-13 .3zM141.3 60.3c-4.2 1.5-7.3 4.9-10.6 11.6l-2.7 5.3 2.2 3.1c3 4.3 3.6 4.6 7.8 4.2 5.5-.5 11.7-3.8 19.5-10.5 3.9-3.3 7.3-6 7.8-6 1.5 0 .6 1.7-2.8 5.7-3.6 4.3-4.5 8.2-2.2 10.1 1 .9 2.1.4 4.5-1.8 1.8-1.6 3.2-2.6 3.2-2.3 0 .3 1.2-.7 2.8-2.2 2.6-2.7 12.5-9.5 13.7-9.5.4 0 .6 1.7.5 3.7-.4 7.3 0 9.3 2 11.3 3 3 5 2.5 10.5-2.6C204.5 74 214 67 215.6 67c1 0 .9 1-.6 4.2-2.4 5.2-2.6 11.1-.5 12.8 1.3 1 2.3 1 5.4-.5 5.5-2.4 13.1-9.7 13.1-12.4 0-2.2-.1-2.2-3.7.6-4.3 3.3-9 6.3-9.8 6.3-1 0-.5-3.5.9-6.2 2.3-4.3 2.9-8.7 1.6-10.3-2.3-2.8-3.3-2.3-16.5 7.5-3.4 2.5-7.4 5.8-9 7.3-4.1 3.7-6.5 3.4-5.5-.8 1.6-6.4.8-11-2-12.5-1.7-.9-3.2-.5-8 2.1-3.3 1.7-6 3.6-6 4 0 .5-.9 1.3-2 1.9-1.8 1-1.9.8-1.4-1.9.7-3.3-1-7.1-3.1-7.1-1.5 0-10.3 5.5-12 7.5-2.4 2.9-14.9 9.7-18.5 10.2-3.5.5-4 .3-4-1.5 0-1.2.9-2.3 2-2.7 1.1-.3 2-1.1 2-1.6s.6-.9 1.3-1c2-.1 13.2-8.5 13.5-10.3.2-1-.7-2-2.3-2.6-3.3-1.2-5.1-1.2-9.2.3zm3.2 5.4c-7.4 6.1-10.4 6.9-6.3 1.8 2.1-2.7 7.8-5.8 8.8-4.8.3.3-.8 1.6-2.5 3zm24 8.9c-2.2 2.2-2.8 1.3-1.5-2.2 1-2.6 1.3-2.7 2.1-1.1.7 1.3.6 2.2-.6 3.3zM248.4 60.7c-5.9 3-10.5 7.8-12.9 13.5-1.2 3-1.2 3.8.2 6.6 2 4.2 7.6 5.9 11.9 3.7 1.6-.8 3.3-1.5 3.8-1.5.4 0 2.5-1.4 4.6-3 2.1-1.7 4.2-3 4.7-3 1.2 0 5.8-5.1 6.6-7.2.8-2.3-.8-3.2-2.3-1.3-2.6 3.1-18.4 11.6-21.9 11.8-3.4.2-3.6 0-3.4-2.6.2-3.3 3.2-7.3 7.9-10.5 2.9-1.9 4.4-2.3 7.4-1.8 4.4.7 6.2-.8 5-4-.7-1.8-1.6-2.2-5-2.1-2.3 0-5.3.7-6.6 1.4zM58 105.5c-11.1 2.4-16.5 4.4-17.8 6.5-1 1.7-1.1 2.5-.1 3.6 1 1.3 1.6 1.1 4-1.2 2.1-2 5-3.2 11.5-4.5 8.1-1.8 11.2-1.8 8.9-.1-.6.4-1.5 1.8-2.1 3.2-.6 1.4-3.4 7.3-6.2 13.3-2.9 5.9-5.2 11.3-5.2 12.1 0 .8.9 2.4 1.9 3.7l2 2.4 1.6-4c.9-2.2 2.4-5.8 3.4-8s2.2-5.1 2.6-6.3c.4-1.3 2-5.1 3.6-8.3 1.7-3.4 2.8-6.8 2.4-7.8-.7-2.3 1.2-2.9 8.7-2.6 6.9.3 10.5 2 8.7 4.1-1.6 1.9-10.6 6.9-15.2 8.4-3.2 1-7.7 5.4-6.6 6.4.2.2 4.2.6 8.9.9 11.6.8 19 3.6 19 7.2 0 1.4-6.2 7.5-7.7 7.5-.6 0-1.3.4-1.5.8-.5 1.2-10.7 5.9-16.7 7.6-3 .9-7.7 1.6-10.5 1.6-4.4 0-4.8-.2-3.6-1.4 1.9-1.8 14.3-8 19.3-9.6 2.1-.7 5-1 6.3-.7 1.7.3 2.8-.1 3.5-1.5 2.1-3.9-1.2-4.9-7.7-2.2-14.9 6-30.4 15.5-30.4 18.5 0 .4 1.5 1.4 3.3 2.2 2.5 1.1 4.6 1.3 9.2.7 6.5-.9 22.1-5.7 24.5-7.5.8-.6 2.8-1.7 4.4-2.5 1.7-.8 4.7-3.1 6.8-5.1 5-4.8 5.2-9.2.7-13.7-3.2-3.1-10.4-6.2-14.3-6.2-1.2 0 .6-1.4 4.3-3.3 7.4-3.7 11.1-7.8 9.5-10.5-2.3-3.8-7.4-5.2-17.9-5.1-5.5.1-12.5.7-15.5 1.4zM146.9 137.3c-1.9 1.7-4.8 4.2-6.5 5.3-2.2 1.7-2.6 2.5-1.7 3.4.9 1 1.8.8 4.1-.9 4.2-2.9 4.5-2.7 2.2 1.9-2.4 4.6-2.6 10.3-.5 12 2 1.6 5.4-.5 11.8-7.3l4.9-5.2-.6 3.6c-.8 4.3 2.2 8.9 5.8 8.9 4.7 0 14.7-10.4 17-17.7 1-3.1-1-6.3-3.9-6.3-3 0-3.7 1.2-2.6 4.2s-.7 6.5-5.4 10.7c-4.8 4.2-7 4.2-6.1-.1.3-1.7 1.3-4.4 2.1-6.1 1.5-3.1 1-5.2-1.9-7.6-1.2-1-1.9-.6-4.1 2.9-3.6 5.6-12.6 14.8-13.2 13.3-.2-.7 1.1-4.1 3-7.5 2.7-4.9 3.3-6.8 2.6-8.6-1.1-3-2.7-2.7-7 1.1zM204.5 135.9c-8.5 4-15.5 12.3-15.5 18.4 0 3 2.4 5.7 4.9 5.7 2.1 0 9.1-4.6 14.6-9.5l4-3.6.5 4.3c.5 3.9.8 4.3 3.5 4.6 2.5.2 4.2-.7 9.4-5.5 4-3.6 6.1-5 5.8-3.8-1.7 5.7-1.8 7.2-.3 8.4 2.1 1.7 5.8.8 12.1-3.1 8.1-5 13.6-8 14.1-7.6.2.2-1.2 4.4-3 9.3-3.1 8.2-3.8 9.2-9.7 14-5.6 4.6-9.5 9.3-15.2 18.6-.8 1.4-1.9 4.2-2.2 6.1-.6 3-.3 3.8 2 5.7 3.6 2.7 4.6 2.7 7.6-.7 2.9-3.1 9.4-12.8 10.9-16.3.6-1.3 1.9-3.9 3-5.7 1.1-1.7 1.7-3.2 1.4-3.2-1.2 0 4.7-8.5 6.3-9.2 4-1.5 8-.9 9.7 1.7 2.2 3.3 3.6 3.2 3.6-.4 0-4.6-5.5-6.2-12.4-3.5-2 .8-2.1-1.2-.2-4.7 1.7-3.3 5.6-15.3 5.6-17.3 0-.9-.9-2-1.9-2.6-1.6-.8-3.7.2-12.3 5.9-16 10.5-17.7 11-13.2 3.9 3.2-5 4.3-10.8 2.2-10.8-.8 0-3.6 1.8-6.1 4-2.5 2.2-4.9 4-5.4 4s-2.7 1.8-4.8 4c-2.1 2.2-4.3 4-4.8 4-1.4 0 0-7 1.8-9 .8-.9 1.5-2.9 1.5-4.3 0-3.4-3.4-3.7-5.1-.5l-1.2 2.3-1-2.8c-1.1-3.3-4.3-3.6-10.2-.8zm9.3 5c-1.2 3.2-18 15.2-19.4 13.8-1.9-1.9 5.5-10.9 11-13.3 3.5-1.5 8.9-1.9 8.4-.5zm30.1 35.8c-7.4 13.5-10.8 18.3-12.9 18.3-1.5 0 1.7-8.7 5.4-14.5 2.5-3.8 9.7-11.5 10.9-11.5.5 0-1.1 3.5-3.4 7.7zM100.5 140.1c-3.3 2.8-6.1 5.5-6.3 5.9-.7 1.8 2.1 2.1 4 .3 2-1.8 2.1-1.8 1.5.2-1.7 5.8-1.8 7.2-.3 8.4 2.1 1.7 5.8.7 12.1-3.2 5.9-3.6 13.8-7.7 14.2-7.4.1.2-1.3 4.3-3.1 9.2-3.1 8.2-3.8 9.2-9.3 13.6-8.1 6.4-16.5 18.3-17.8 25.2-.6 2.9-.3 3.7 2 5.6 1.5 1.1 3.3 2.1 3.9 2.1 2.4 0 10.2-10.4 15.4-20.7 1.1-2.3 2.5-5 3-6 .6-1 1.8-3.5 2.8-5.7 3-6 10.7-7.8 13.8-3.1 2.2 3.3 3.6 3.2 3.6-.4 0-4.1-4.4-5.9-10.1-4.2-2.3.7-4.2 1.1-4.4.9-.2-.2.5-2 1.5-4.1 2.2-4.4 6-16 6-18.1 0-.9-.9-2-1.9-2.6-1.6-.8-3.7.2-12.3 5.9-16.4 10.8-16.9 10.9-12.3 2.3 2.7-5.1 3.3-9.2 1.3-9.2-.7 0-4 2.3-7.3 5.1zm11.4 36.6C105.8 188 101 195 99.5 195s-.9-2.8 1.7-8.5c2.8-6.3 11.8-17.5 14.1-17.5.5 0-1.1 3.5-3.4 7.7z"/></svg>
